<svg width="131" height="48" viewBox="0 0 131 48" fill="none" xmlns="http://www.w3.org/2000/svg">
<g filter="url(#filter0_in_684_801)">
<path d="M28.7568 0C30.46 9.01953e-06 31.8408 1.38079 31.8408 3.08398C31.8408 4.78715 30.46 6.16796 28.7568 6.16797C27.7813 6.16797 26.9128 5.71391 26.3477 5.00684H8.58594C5.52544 5.00684 3.04406 7.48738 3.04395 10.5479V39.8994C3.0441 40.5209 3.54837 41.0244 4.16992 41.0244C4.79125 41.0242 5.29477 40.5208 5.29492 39.8994V35.1055C5.29492 33.4531 5.45385 31.7818 6.10156 30.2617C7.8291 26.2075 10.8237 23.9689 15.46 22.3486C17.7211 21.5585 20.8938 21.4814 23.1172 21.5518C24.8567 21.6067 26.629 21.4818 28.2188 20.7734C30.3005 19.8456 31.9542 18.6867 33.2373 16.8828C34.213 15.511 34.4834 13.7899 34.4834 12.1064V6.22559C34.4834 5.2597 34.6431 4.2811 35.21 3.49902C35.8903 2.56025 37.065 1.4415 38.8027 1.44141C41.178 1.44141 42.3449 2.9074 42.8604 3.8916C43.1512 4.44699 43.2148 5.08106 43.2148 5.70801V37.1445C43.2148 41.3528 39.803 44.7646 35.5947 44.7646H13.6514C12.8585 44.7646 12.2159 44.1219 12.2158 43.3291C12.2158 42.5362 12.8585 41.8936 13.6514 41.8936H17.5312C17.1329 41.6393 16.7405 41.1452 16.6143 40.7148C16.4859 40.2776 16.4808 40.274 15.9453 40.2148C15.649 40.1821 15.2631 40.0813 15.0879 39.9902C14.5021 39.6856 14.4573 39.5337 14.458 37.8682C14.4583 37.0386 14.5037 36.1975 14.5586 35.999C14.6775 35.569 15.0095 35.3756 15.9424 35.1953C16.6151 35.0653 16.6468 35.0441 18.249 33.626C19.6008 32.4295 20.0821 32.2894 23.0703 32.2217C26.8121 32.1369 27.0046 32.203 29.6963 34.4746C30.3483 35.0248 30.9156 35.4238 31.0957 35.459C32.3997 35.7117 34.2883 36.1646 34.7441 36.334C35.4052 36.5797 35.9553 37.118 36.124 37.6836C36.1907 37.907 36.2461 38.4987 36.2461 38.999C36.2461 40.1952 36.2161 40.2246 35.0049 40.2246H34.0781L33.9531 40.6514C33.7946 41.1901 33.4511 41.6438 33.0215 41.8936H34.585C37.6455 41.8935 40.127 39.4121 40.127 36.3516V6.67969C40.1269 6.08339 39.6432 5.59966 39.0469 5.59961C38.4505 5.59961 37.9668 6.08336 37.9668 6.67969V10.8066C37.9668 13.0387 37.7638 15.3177 36.7227 17.292C34.9961 20.5655 32.2851 22.7127 28.7305 24.0996C26.8139 24.8473 24.7072 24.8003 22.6562 24.6396C20.8673 24.4995 18.6548 24.4938 17.0215 25.043C13.5216 26.2197 11.1347 27.8919 9.57324 30.8613C8.98292 31.984 8.80176 33.2648 8.80176 34.5332V39.4971C8.80176 40.5054 8.62343 41.5217 8.04785 42.3496C7.25596 43.4886 5.8407 44.9251 3.80859 44.7646C0.0702962 44.4693 0 41.0244 0 41.0244V9.06152C6.16545e-05 4.8533 3.41187 1.44141 7.62012 1.44141H26.1494C26.6956 0.576158 27.658 0 28.7568 0ZM20.7129 40.5635C20.6278 41.0175 20.1658 41.6354 19.7295 41.8936H30.8057L30.7812 41.8789C30.3283 41.6062 29.957 41.0889 29.8555 40.5898L29.791 40.2744L25.2842 40.249L20.7764 40.2227L20.7129 40.5635ZM23.4561 33.3066C21.9592 33.3125 21.1238 33.3583 20.7139 33.458C20.3897 33.5368 19.9795 33.6916 19.8018 33.8018C19.3517 34.0811 18.0371 35.4906 18.1104 35.6152C18.1825 35.7326 29.249 35.7326 29.249 35.6152C29.2485 35.5175 27.706 34.2043 27.2002 33.8711C26.4776 33.3952 25.8269 33.2975 23.4561 33.3066Z" fill="url(#paint0_radial_684_801)"/>
</g>
<g filter="url(#filter1_in_684_801)">
<path fill-rule="evenodd" clip-rule="evenodd" d="M30.2391 4.27454C30.2391 4.52389 29.6115 4.72602 28.8373 4.72602C28.0631 4.72602 27.4355 4.52389 27.4355 4.27454C27.4355 4.07866 27.8229 3.91194 28.3643 3.84943C28.4292 3.93853 28.4925 4.02274 28.5515 4.09984C28.3455 4.12974 28.2043 4.19094 28.2043 4.26158C28.2043 4.36168 28.4877 4.44282 28.8373 4.44282C29.187 4.44282 29.4704 4.36168 29.4704 4.26158C29.4704 4.191 29.3294 4.12985 29.1237 4.09992C29.1831 4.0227 29.2466 3.93854 29.3117 3.84959C29.8524 3.91221 30.2391 4.07882 30.2391 4.27454ZM28.8373 1.20154C28.2249 1.20154 27.7285 1.70852 27.7285 2.33392C27.7285 2.85363 28.4677 3.81346 28.8102 4.25012C28.817 4.25881 28.8264 4.26341 28.8373 4.26341C28.8482 4.26343 28.8576 4.25883 28.8644 4.25016C29.1928 3.8323 29.9462 2.86791 29.9462 2.33392C29.9462 1.70852 29.4497 1.20154 28.8373 1.20154ZM28.8373 1.73919C29.1582 1.73919 29.4184 2.00485 29.4184 2.33254C29.4184 2.66024 29.1582 2.92589 28.8373 2.92589C28.5164 2.92589 28.2563 2.66024 28.2563 2.33254C28.2563 2.00485 28.5164 1.73919 28.8373 1.73919Z" fill="url(#paint1_radial_684_801)"/>
</g>
<g filter="url(#filter2_in_684_801)">
<path d="M14.8595 43.2549H34.6536C38.5196 43.2549 41.6536 40.1209 41.6536 36.2549V6.18471C41.6536 5.42123 41.2803 4.70599 40.6539 4.26944C39.7084 3.61042 38.4234 3.74006 37.6285 4.57467L37.3711 4.84489C36.8807 5.35983 36.6072 6.04369 36.6072 6.7548V11.9352C36.6072 13.1428 36.2948 14.3298 35.7003 15.381L34.2683 17.9133C33.6495 19.0074 32.7476 19.9147 31.6572 20.54L28.968 22.0821C28.0645 22.6001 27.0569 22.9101 26.0185 22.9893L18.6372 23.5525C17.9646 23.6039 17.303 23.7521 16.6729 23.9927L13.0917 25.3601C11.7403 25.8761 10.5819 26.7981 9.77585 27.9994L8.03656 30.5916C7.26261 31.7451 6.84934 33.1027 6.84934 34.4918V39.4174C6.84934 39.8602 6.74559 40.2969 6.5464 40.6923C5.51263 42.7449 2.57978 42.7514 1.49905 40.7232C1.27906 40.3103 1.16211 39.8462 1.16211 39.3783V10.1238C1.16211 6.25784 4.29612 3.12384 8.16211 3.12384H24.8322" stroke="#AA10EC" stroke-width="0.4" stroke-dasharray="2 2"/>
</g>
<g filter="url(#filter3_in_684_801)">
<path fill-rule="evenodd" clip-rule="evenodd" d="M51.9902 0.242767C50.7089 0.631748 49.9223 1.08621 49.1074 1.90828C46.987 4.04752 46.6399 7.48479 48.2941 9.96075C49.1635 11.2619 50.2857 12.105 51.8304 12.6174C52.538 12.8521 52.8589 12.8967 53.8353 12.8953C54.5622 12.8944 55.2315 12.8306 55.622 12.7252C56.4899 12.491 57.6177 11.8749 58.2681 11.2799C58.8975 10.704 59.489 9.90055 59.3243 9.84554C59.2628 9.82501 58.701 9.52341 58.076 9.17548C57.4509 8.82744 56.8961 8.54277 56.8431 8.54277C56.7901 8.54277 56.6759 8.67987 56.5893 8.84754C56.3997 9.21473 55.9168 9.63482 55.327 9.94604C54.9761 10.1313 54.7082 10.1762 53.9409 10.179C53.1096 10.1821 52.9141 10.1452 52.3886 9.88691C51.6055 9.50195 50.7971 8.62168 50.5481 7.88286C50.4239 7.51451 50.3614 7.01498 50.3634 6.40607C50.3661 5.58843 50.404 5.40954 50.7039 4.79978C50.9133 4.37399 51.2387 3.93581 51.5614 3.64543C53.1422 2.22258 55.8009 2.53201 56.7971 4.25487C56.8958 4.42561 56.9712 4.39694 57.623 3.94079C58.0176 3.66468 58.5759 3.30987 58.8638 3.15235L59.3871 2.86577L59.0141 2.37693C58.5807 1.80853 57.6284 1.0056 57.0182 0.693953C56.0584 0.203838 55.4485 0.0593314 54.1523 0.0149005C53.0196 -0.0239236 52.7888 0.000406751 51.9902 0.242767ZM76.1751 3.46665C75.5298 3.5755 75.0953 3.81183 74.478 4.38996L73.9662 4.86918V4.27286V3.67653H72.5924H71.2187V8.17251V12.6685H72.6453H74.0719V9.98751C74.0719 7.38608 74.0792 7.29278 74.3175 6.84032C74.6546 6.20062 75.128 5.89807 75.7921 5.89807C76.2731 5.89807 76.3589 5.93816 76.7805 6.36015L77.2421 6.82235L77.2665 9.24287C77.2799 10.5742 77.2899 11.8897 77.2885 12.166L77.286 12.6685H78.6769H80.068L80.141 12.1188C80.181 11.8165 80.1813 10.6859 80.1417 9.60635C80.057 7.29891 80.1279 6.89851 80.727 6.29859C81.0869 5.93848 81.1822 5.89807 81.6732 5.89807C82.3965 5.89807 82.773 6.10986 83.0434 6.66905C83.2446 7.08533 83.2655 7.31288 83.2655 9.08916C83.2655 10.1675 83.2963 11.414 83.3339 11.8591L83.4022 12.6685H84.7605H86.1187V9.51538C86.1187 6.55776 86.1045 6.32006 85.889 5.68057C85.578 4.75768 84.7229 3.87816 83.8982 3.63305C83.1751 3.41809 82.247 3.41851 81.6125 3.63421C81.0455 3.82696 80.0539 4.52241 79.8786 4.85024C79.7659 5.06097 79.7462 5.0523 79.391 4.63687C78.6188 3.73387 77.343 3.26956 76.1751 3.46665ZM92.6705 3.50579C91.9089 3.72953 91.6958 3.83817 91.11 4.30173L90.5571 4.73938V4.2079V3.67653H89.1888H87.8205L87.8414 9.83867L87.8624 16.0008L88.1265 15.984C88.2719 15.9747 88.9019 15.9321 89.5267 15.8895L90.6627 15.812V13.8153V11.8187L91.1929 12.1838C92.5027 13.0857 93.7917 13.2164 95.1417 12.5839C97.0291 11.6998 98.0884 9.56055 97.7538 7.30875C97.6286 6.46615 97.1947 5.44001 96.7473 4.92874C95.7448 3.78306 93.9084 3.14209 92.6705 3.50579ZM102.201 3.47775C100.854 3.70128 99.6563 4.60154 99.0705 5.82973C98.0404 7.98971 98.4107 10.3041 100.029 11.8196C100.922 12.6557 101.605 12.9225 102.868 12.9279C103.961 12.9325 104.511 12.7385 105.219 12.0986C105.451 11.8884 105.671 11.7164 105.708 11.7164C105.744 11.7164 105.774 11.9577 105.774 12.2525V12.7887L107.069 12.7318L108.363 12.6748L108.391 8.17569L108.418 3.67653H107.096H105.774V4.15236V4.62819L105.144 4.16389C104.31 3.54884 103.254 3.30278 102.201 3.47775ZM115.161 3.61274C114.343 3.90196 113.94 4.16686 113.493 4.70976L113.171 5.10001V4.38827V3.67653H111.745H110.318V8.15484C110.318 10.618 110.338 12.653 110.362 12.6773C110.386 12.7015 111.024 12.7069 111.78 12.6892L113.154 12.657L113.19 10.3619C113.229 7.84225 113.26 7.70377 113.944 6.98219C114.324 6.58126 115.218 6.21544 115.817 6.21544H116.236V4.7873C116.236 3.13892 116.301 3.21 115.161 3.61274ZM120.78 3.43226C119.188 3.69906 117.732 4.84348 117.112 6.31647C116.848 6.94199 116.82 7.13166 116.819 8.28052C116.817 9.5157 116.827 9.57325 117.179 10.287C117.65 11.2458 118.329 11.9142 119.31 12.3858C120.326 12.8747 121.217 13.0179 122.354 12.8752C123.333 12.7523 124.085 12.4883 124.728 12.0412C125.19 11.7206 125.815 11.1073 125.739 11.0502C125.714 11.0315 125.275 10.6934 124.764 10.2987L123.834 9.58096L123.575 9.86025C122.805 10.6927 121.117 10.7893 120.24 10.0511C119.963 9.81741 119.617 9.24678 119.617 9.0222C119.617 8.9912 121.091 8.96592 122.891 8.96592H126.165L126.232 8.70039C126.362 8.17981 126.091 6.56813 125.754 5.86126C124.95 4.17384 122.754 3.10147 120.78 3.43226ZM63.5045 3.66447C62.0929 4.12137 60.9844 5.03252 60.4093 6.20909C60.0841 6.87418 60.0701 6.95584 60.0725 8.17251C60.0755 9.83306 60.2898 10.4207 61.2388 11.3715C63.7755 13.913 67.9358 13.3211 69.4771 10.1993C70.2812 8.57049 70.0521 6.58368 68.8985 5.18273C68.4326 4.61687 67.3487 3.90895 66.5879 3.67378C65.7182 3.40476 64.3196 3.40063 63.5045 3.66447ZM120.599 5.87099C120.177 6.1033 119.723 6.70428 119.723 7.02936V7.27331H121.572C122.773 7.27331 123.422 7.23502 123.422 7.16414C123.422 6.86275 123.084 6.31614 122.731 6.04691C122.404 5.79662 122.215 5.73939 121.637 5.71422C121.123 5.69179 120.849 5.73305 120.599 5.87099ZM64.0857 6.05845C63.5832 6.32958 63.3273 6.61944 63.0777 7.20043C62.8889 7.63977 62.8549 7.87631 62.8965 8.45931C62.9924 9.79985 63.7978 10.52 65.0961 10.426C66.3197 10.3374 67.0581 9.41129 66.9729 8.07202C66.8925 6.80711 66.1531 5.99847 65.0108 5.9259C64.59 5.89924 64.305 5.94007 64.0857 6.05845ZM91.9308 5.96673C91.6466 6.07992 91.0715 6.68259 90.8648 7.08395C90.7198 7.36566 90.6627 7.69573 90.6627 8.25334C90.6627 8.92678 90.7031 9.09402 90.9655 9.50818C91.3176 10.0641 91.8068 10.3344 92.5985 10.4108C93.0559 10.4549 93.2414 10.4144 93.7251 10.1644C94.5136 9.75689 94.8369 9.14269 94.8369 8.05223C94.8369 7.37741 94.801 7.24084 94.5198 6.84223C94.1067 6.2567 93.5328 5.96525 92.7255 5.93076C92.3756 5.91585 92.018 5.93203 91.9308 5.96673ZM102.619 6.12647C101.786 6.53936 101.248 7.58222 101.378 8.53315C101.459 9.11963 101.868 9.83084 102.304 10.1419C102.668 10.4009 103.502 10.5201 104.128 10.4025C105.357 10.1719 106.04 8.30136 105.35 7.06174C104.772 6.02417 103.621 5.63001 102.619 6.12647ZM88.9041 16.5562C88.9401 16.7744 88.9701 19.5117 88.9708 22.639L88.9719 28.3251H90.3377H91.7034L91.7379 25.6459L91.7723 22.9668L92.0671 22.521C92.5009 21.8653 92.9172 21.6395 93.5995 21.6901C94.1936 21.7341 94.563 21.9417 94.936 22.4415C95.141 22.7161 95.1558 22.8982 95.1867 25.5292L95.2195 28.3251H96.6466H98.0737L98.0353 25.0721C97.9902 21.2467 97.9652 21.1272 97.01 20.1699C96.3128 19.4713 95.6201 19.1913 94.5727 19.1848C93.659 19.1792 92.9007 19.4532 92.2774 20.0144L91.7723 20.4691L91.8081 18.3143L91.844 16.1595H90.3413H88.8386L88.9041 16.5562ZM47.8399 22.2952L47.8118 28.3251H49.3177H50.8235V25.9449V23.5646H53.2841H55.7445L55.7019 25.9449L55.6593 28.3251H57.1514H58.6434V22.2952V16.2653H57.1558H55.6682L55.6951 18.6191L55.7221 20.9728L53.2729 21.0012L50.8235 21.0296V18.6474V16.2653H49.3458H47.868L47.8399 22.2952ZM83.4011 17.0841L82.7442 17.1215L82.7142 18.2538L82.6843 19.386L82.0239 19.4175L81.3634 19.449V20.5497V21.6504L82.0239 21.6818L82.6843 21.7133L82.686 23.9349C82.6871 25.3846 82.7328 26.307 82.8178 26.5897C83.0159 27.2494 83.4847 27.8156 84.1191 28.1613C84.5997 28.4231 84.8371 28.4794 85.5904 28.5102C86.1165 28.5318 86.7075 28.4895 87.017 28.408L87.5453 28.2691L87.524 27.4773C87.5123 27.0417 87.4749 26.5325 87.4407 26.3457C87.3837 26.0328 87.3578 26.014 87.1118 26.1077C86.6307 26.2908 85.9604 26.2317 85.7388 25.9868C85.5582 25.7873 85.5339 25.5533 85.5031 23.7163L85.4686 21.6683L86.507 21.6379L87.5453 21.6076L87.5754 20.4703L87.6054 19.3331H86.545H85.4847V18.1695V17.0058L84.7714 17.0262C84.3791 17.0374 83.7625 17.0634 83.4011 17.0841ZM63.4408 19.3147C62.0513 19.7273 60.8933 20.7361 60.4511 21.9191C59.7041 23.9181 60.0966 26.0161 61.4491 27.2537C62.8241 28.5117 64.5945 28.9229 66.5166 28.4308C67.4518 28.1913 67.9822 27.91 68.7121 27.266C69.3139 26.7352 69.3266 26.7617 68.0781 25.9387L67.1783 25.3455L66.8472 25.6662C66.3707 26.128 65.8396 26.3154 65.0137 26.3134C64.4677 26.312 64.197 26.255 63.8775 26.0737C63.4271 25.8183 62.9761 25.2433 62.9761 24.9242C62.9761 24.7419 63.1027 24.7268 64.799 24.707C65.8016 24.6954 67.2163 24.6979 67.9428 24.7126C68.7105 24.7282 69.3301 24.6943 69.4222 24.6319C69.5445 24.549 69.5783 24.3116 69.57 23.5949C69.548 21.6771 68.5315 20.1857 66.7542 19.4633C65.8664 19.1026 64.3799 19.036 63.4408 19.3147ZM73.546 19.2843C72.3442 19.6218 71.4291 20.3541 70.873 21.4233C70.4596 22.2182 70.2676 22.9783 70.2676 23.8199C70.2676 26.1868 71.6255 27.9976 73.814 28.5492C74.8463 28.8095 76.1275 28.4419 77.0284 27.6269L77.4413 27.2535L77.4738 27.7629L77.5063 28.2722L78.8536 28.3018L80.201 28.3314V23.8323V19.3331H78.8165H77.4322L77.47 19.8092C77.4908 20.071 77.49 20.2852 77.4681 20.2852C77.4464 20.2852 77.2607 20.1377 77.0556 19.9574C76.2278 19.2299 74.7496 18.9464 73.546 19.2843ZM104.796 19.2364C103.917 19.4439 103.159 19.971 102.761 20.652C102.68 20.7901 102.663 20.7144 102.692 20.3464C102.714 20.0772 102.701 19.7364 102.664 19.5888L102.597 19.3206L101.253 19.3533L99.9092 19.386L99.8816 23.8555L99.8541 28.3251H101.275H102.695L102.729 25.9097L102.762 23.4944L103.079 22.9816C103.485 22.3255 104.101 21.9997 104.997 21.9673L105.639 21.9442L105.706 20.9296C105.823 19.1566 105.819 19.12 105.484 19.1321C105.324 19.138 105.014 19.1849 104.796 19.2364ZM109.962 19.2893C108.511 19.6412 107.279 20.6355 106.632 21.9778C106.264 22.742 106.25 22.8142 106.25 23.9371C106.25 25.0509 106.266 25.136 106.612 25.8413C108.419 29.5219 113.877 29.5659 115.68 25.9143C116.073 25.1187 116.077 25.0959 116.077 23.8329C116.077 22.5935 116.067 22.5342 115.716 21.8172C115.215 20.7942 114.394 20.004 113.433 19.6204C112.185 19.1222 111.085 19.0172 109.962 19.2893ZM116.342 19.4417C116.341 19.5292 119.17 28.2297 119.211 28.2673C119.231 28.2858 119.847 28.3203 120.581 28.3438L121.913 28.3866L122.663 26.1079C123.075 24.8545 123.443 23.6982 123.481 23.5382C123.519 23.3781 123.582 23.2473 123.62 23.2473C123.694 23.2473 124.811 26.8511 125.022 27.7726L125.15 28.331L126.52 28.3016L127.889 28.2722L128.726 25.8391C130.448 20.8336 130.803 19.7845 130.837 19.605C130.868 19.4391 130.732 19.4162 129.469 19.3752C128.397 19.3405 128.057 19.3614 128.028 19.4637C128.007 19.5373 127.669 20.7401 127.278 22.1365C126.887 23.5329 126.543 24.7174 126.512 24.7686C126.482 24.8199 126.279 24.2725 126.062 23.552C125.845 22.8317 125.468 21.6115 125.224 20.8406L124.781 19.4389H123.585C122.431 19.4389 122.388 19.4473 122.337 19.6769C122.181 20.3844 120.865 24.7916 120.786 24.8699C120.733 24.9228 120.641 24.6967 120.572 24.3429C120.504 24.0022 120.373 23.4853 120.279 23.1944C120.186 22.9035 119.911 21.9276 119.668 21.0257L119.226 19.386H117.784C116.991 19.386 116.342 19.4111 116.342 19.4417ZM63.9605 21.5486C63.5233 21.7474 63.0766 22.2896 62.9232 22.8077L62.8498 23.0558L64.7358 22.9798C65.7732 22.9379 66.6395 22.888 66.6609 22.8689C66.7558 22.7841 66.5448 22.2826 66.2834 21.9716C65.7483 21.3351 64.8074 21.1638 63.9605 21.5486ZM74.5811 21.7218C73.0748 22.1858 72.6345 24.3528 73.8079 25.5274C74.812 26.5327 76.3657 26.3344 77.0827 25.1096C77.8638 23.7753 77.2323 22.0286 75.842 21.6782C75.2479 21.5284 75.2039 21.5299 74.5811 21.7218ZM110.371 21.8028C109.56 22.1751 109.12 22.9467 109.123 23.9881C109.125 24.8602 109.414 25.4625 110.022 25.8651C110.389 26.1089 110.574 26.1559 111.163 26.1561C111.748 26.1564 111.937 26.1091 112.294 25.8725C113.504 25.0715 113.545 22.9141 112.367 22.0146C112.063 21.7821 111.85 21.7151 111.336 21.6895C110.943 21.67 110.563 21.7146 110.371 21.8028ZM87.7761 31.1232C87.2371 31.3154 87.0053 31.5423 86.8011 32.0777C86.3794 33.183 87.3365 34.2773 88.5788 34.1105C89.3746 34.0037 89.9225 33.3442 89.9228 32.4929C89.9232 31.4528 88.822 30.7503 87.7761 31.1232ZM76.8194 37.7931V44.0875H78.246H79.6726V42.3948C79.6726 41.4192 79.7144 40.7022 79.7711 40.7022C79.8253 40.7022 80.4705 41.4639 81.2049 42.3948L82.5402 44.0875H84.2838H86.0274L85.816 43.7965C85.6997 43.6365 84.8467 42.5773 83.9204 41.4428L82.2362 39.3799L82.6715 38.8873C84.1103 37.2598 84.6566 36.6266 85.2457 35.904L85.9049 35.0955H84.2799C82.8834 35.0955 82.6252 35.1215 82.4432 35.2806C82.3268 35.3825 81.6738 36.1084 80.9921 36.8939C80.3104 37.6794 79.7227 38.334 79.6861 38.3486C79.6497 38.3631 79.633 36.8279 79.649 34.9369L79.6783 31.4987H78.2489H76.8194V37.7931ZM47.8647 37.963V44.0875H49.3441H50.8235V42.1433V40.199L52.4351 40.1468C54.2437 40.088 54.8826 39.9251 55.8661 39.2722C56.5163 38.8406 57.2155 37.9953 57.3781 37.4443C57.4416 37.2289 57.521 36.6655 57.5543 36.1924C57.6983 34.1491 56.7173 32.7459 54.7033 32.1146C54.1289 31.9346 53.659 31.9044 50.9556 31.8736L47.8647 31.8385V37.963ZM50.8235 35.9786V37.7402H52.0222C53.0697 37.7402 53.2789 37.7095 53.681 37.4966C54.8642 36.8702 54.9336 35.1963 53.8039 34.5339C53.5568 34.389 53.1551 34.3274 52.1505 34.2798L50.8235 34.217V35.9786ZM60.7385 35.1299C59.648 35.5897 59.0044 36.1795 58.4982 37.183C57.7164 38.7331 57.7021 40.5458 58.46 42.0246C58.8218 42.7303 59.7123 43.6021 60.4344 43.9574C60.9654 44.2187 61.1313 44.2461 62.1835 44.2461C63.2419 44.2461 63.3942 44.2206 63.8856 43.961C64.1826 43.8043 64.5745 43.5505 64.7567 43.397L65.0879 43.1179L65.0215 43.6027L64.9551 44.0875H66.3961H67.8371V39.5915V35.0955H66.4633H65.0896V35.6326V36.1696L64.8116 35.839C64.6587 35.657 64.2902 35.3824 63.9927 35.2285C63.5354 34.992 63.2878 34.9432 62.3949 34.9129C61.4696 34.8816 61.2635 34.9086 60.7385 35.1299ZM74.5248 35.0374C73.82 35.2579 73.1695 35.6894 72.8048 36.1782L72.4684 36.6294L72.504 35.8889L72.5396 35.1484L71.1394 35.1189L69.7392 35.0894V39.5884V44.0875L71.1923 44.0873L72.6453 44.0872V41.7865C72.6453 39.1942 72.6936 38.9463 73.3171 38.3367C73.7329 37.9303 74.515 37.6382 75.1947 37.6357C75.6029 37.6341 75.657 37.4341 75.657 35.9286V34.8839L75.3135 34.891C75.1246 34.8949 74.7698 34.9607 74.5248 35.0374ZM95.9913 35.0945C95.6961 35.2121 95.2317 35.5221 94.959 35.7836C94.6864 36.0451 94.4404 36.2592 94.4123 36.2592C94.3843 36.2592 94.3613 35.9973 94.3613 35.6773V35.0955H92.9846H91.6079L91.6185 39.5915L91.6289 44.0875H93.1008H94.5727L94.5756 41.4163C94.5785 38.8537 94.5883 38.7261 94.8176 38.2774C95.1376 37.6511 95.4722 37.4226 96.164 37.3579C96.8969 37.2893 97.3852 37.5265 97.7131 38.1104C97.9426 38.5191 97.9509 38.6289 97.9526 41.3105L97.9543 44.0875H99.443H100.932L100.891 40.8874C100.852 37.8297 100.839 37.6593 100.602 37.058C100.285 36.2539 99.5915 35.5069 98.8751 35.1981C98.0783 34.8546 96.7167 34.8057 95.9913 35.0945ZM105.018 35.0501C104.748 35.1335 104.291 35.3801 104.002 35.5982C103.062 36.3088 102.59 37.0292 102.286 38.2213C101.791 40.1584 102.193 41.7896 103.456 42.9727C104.932 44.3546 107.296 44.5105 108.776 43.3236L109.19 42.9924L109.117 43.7728C109.077 44.2021 108.963 44.6937 108.862 44.8654C108.598 45.3184 107.961 45.61 107.133 45.6569C106.228 45.7083 105.493 45.5458 104.526 45.0801C104.098 44.874 103.738 44.721 103.726 44.7402C103.715 44.7594 103.426 45.1527 103.085 45.6143L102.464 46.4536L102.804 46.7374C103.268 47.1256 104.339 47.6352 105.112 47.8355C105.865 48.0311 107.817 48.0582 108.649 47.8847C109.586 47.6889 110.456 47.2125 111.037 46.5766C111.965 45.5598 111.946 45.6911 111.985 40.0379L112.019 35.0891L110.666 35.1188L109.314 35.1484L109.282 35.6553L109.249 36.1623L108.722 35.6879C108.374 35.3741 108.004 35.1578 107.629 35.0487C106.933 34.8463 105.678 34.8469 105.018 35.0501ZM86.9641 39.5884V44.0875H88.3919H89.8197L89.7921 39.6179L89.7645 35.1484L88.3643 35.1189L86.9641 35.0894V39.5884ZM61.9722 37.546C61.5264 37.7921 61.1722 38.2236 60.9686 38.7687C60.3585 40.4008 61.2832 41.8659 62.9232 41.8659C64.1691 41.8659 64.9766 40.966 64.9816 39.5719C64.9828 39.212 64.9333 38.7836 64.8715 38.6198C64.7185 38.2145 64.2626 37.7446 63.8513 37.5685C63.4465 37.3951 62.2708 37.381 61.9722 37.546ZM105.975 37.6609C105.455 38.0058 105.034 38.8925 105.037 39.6369C105.042 40.9519 105.839 41.7637 107.118 41.7578C107.834 41.7545 108.448 41.444 108.804 40.9052C109.207 40.2963 109.284 39.147 108.965 38.524C108.544 37.7008 108.047 37.4228 106.998 37.4228C106.486 37.4228 106.252 37.4773 105.975 37.6609Z" fill="url(#paint2_radial_684_801)"/>
</g>
<defs>
<filter id="filter0_in_684_801" x="0" y="0" width="43.2841" height="44.9848" filterUnits="userSpaceOnUse" color-interpolation-filters="sRGB">
<feFlood flood-opacity="0" result="BackgroundImageFix"/>
<feBlend mode="normal" in="SourceGraphic" in2="BackgroundImageFix" result="shape"/>
<feColorMatrix in="SourceAlpha" type="matrix" values="0 0 0 0 0 0 0 0 0 0 0 0 0 0 0 0 0 0 127 0" result="hardAlpha"/>
<feOffset dx="0.0692706" dy="0.207812"/>
<feGaussianBlur stdDeviation="0.5888"/>
<feComposite in2="hardAlpha" operator="arithmetic" k2="-1" k3="1"/>
<feColorMatrix type="matrix" values="0 0 0 0 0 0 0 0 0 0 0 0 0 0 0 0 0 0 0.25 0"/>
<feBlend mode="normal" in2="shape" result="effect1_innerShadow_684_801"/>
<feTurbulence type="fractalNoise" baseFrequency="28.872276306152344 28.872276306152344" stitchTiles="stitch" numOctaves="3" result="noise" seed="5780" />
<feColorMatrix in="noise" type="luminanceToAlpha" result="alphaNoise" />
<feComponentTransfer in="alphaNoise" result="coloredNoise1">
<feFuncA type="discrete" tableValues="0 0 0 0 0 1 1 1 1 1 1 1 1 1 1 1 1 1 1 1 1 1 1 1 1 1 1 1 1 1 1 1 1 1 1 1 1 1 1 1 1 1 1 1 1 0 0 0 0 0 0 0 0 0 0 0 0 0 0 0 0 0 0 0 0 0 0 0 0 0 0 0 0 0 0 0 0 0 0 0 0 0 0 0 0 0 0 0 0 0 0 0 0 0 0 0 0 0 0 0 "/>
</feComponentTransfer>
<feComposite operator="in" in2="effect1_innerShadow_684_801" in="coloredNoise1" result="noise1Clipped" />
<feFlood flood-color="rgba(255, 255, 255, 0.25)" result="color1Flood" />
<feComposite operator="in" in2="noise1Clipped" in="color1Flood" result="color1" />
<feMerge result="effect2_noise_684_801">
<feMergeNode in="effect1_innerShadow_684_801" />
<feMergeNode in="color1" />
</feMerge>
</filter>
<filter id="filter1_in_684_801" x="27.4355" y="1.20154" width="3.26598" height="4.91422" filterUnits="userSpaceOnUse" color-interpolation-filters="sRGB">
<feFlood flood-opacity="0" result="BackgroundImageFix"/>
<feBlend mode="normal" in="SourceGraphic" in2="BackgroundImageFix" result="shape"/>
<feColorMatrix in="SourceAlpha" type="matrix" values="0 0 0 0 0 0 0 0 0 0 0 0 0 0 0 0 0 0 127 0" result="hardAlpha"/>
<feOffset dx="0.463247" dy="1.38974"/>
<feGaussianBlur stdDeviation="3.9376"/>
<feComposite in2="hardAlpha" operator="arithmetic" k2="-1" k3="1"/>
<feColorMatrix type="matrix" values="0 0 0 0 0 0 0 0 0 0 0 0 0 0 0 0 0 0 0.25 0"/>
<feBlend mode="normal" in2="shape" result="effect1_innerShadow_684_801"/>
<feTurbulence type="fractalNoise" baseFrequency="4.3173494338989258 4.3173494338989258" stitchTiles="stitch" numOctaves="3" result="noise" seed="5780" />
<feColorMatrix in="noise" type="luminanceToAlpha" result="alphaNoise" />
<feComponentTransfer in="alphaNoise" result="coloredNoise1">
<feFuncA type="discrete" tableValues="0 0 0 0 0 1 1 1 1 1 1 1 1 1 1 1 1 1 1 1 1 1 1 1 1 1 1 1 1 1 1 1 1 1 1 1 1 1 1 1 1 1 1 1 1 0 0 0 0 0 0 0 0 0 0 0 0 0 0 0 0 0 0 0 0 0 0 0 0 0 0 0 0 0 0 0 0 0 0 0 0 0 0 0 0 0 0 0 0 0 0 0 0 0 0 0 0 0 0 0 "/>
</feComponentTransfer>
<feComposite operator="in" in2="effect1_innerShadow_684_801" in="coloredNoise1" result="noise1Clipped" />
<feFlood flood-color="rgba(255, 255, 255, 0.25)" result="color1Flood" />
<feComposite operator="in" in2="noise1Clipped" in="color1Flood" result="color1" />
<feMerge result="effect2_noise_684_801">
<feMergeNode in="effect1_innerShadow_684_801" />
<feMergeNode in="color1" />
</feMerge>
</filter>
<filter id="filter2_in_684_801" x="0.962891" y="2.92383" width="41.3539" height="41.9208" filterUnits="userSpaceOnUse" color-interpolation-filters="sRGB">
<feFlood flood-opacity="0" result="BackgroundImageFix"/>
<feBlend mode="normal" in="SourceGraphic" in2="BackgroundImageFix" result="shape"/>
<feColorMatrix in="SourceAlpha" type="matrix" values="0 0 0 0 0 0 0 0 0 0 0 0 0 0 0 0 0 0 127 0" result="hardAlpha"/>
<feOffset dx="0.463247" dy="1.38974"/>
<feGaussianBlur stdDeviation="3.9376"/>
<feComposite in2="hardAlpha" operator="arithmetic" k2="-1" k3="1"/>
<feColorMatrix type="matrix" values="0 0 0 0 0 0 0 0 0 0 0 0 0 0 0 0 0 0 0.25 0"/>
<feBlend mode="normal" in2="shape" result="effect1_innerShadow_684_801"/>
<feTurbulence type="fractalNoise" baseFrequency="4.3173494338989258 4.3173494338989258" stitchTiles="stitch" numOctaves="3" result="noise" seed="5780" />
<feColorMatrix in="noise" type="luminanceToAlpha" result="alphaNoise" />
<feComponentTransfer in="alphaNoise" result="coloredNoise1">
<feFuncA type="discrete" tableValues="0 0 0 0 0 1 1 1 1 1 1 1 1 1 1 1 1 1 1 1 1 1 1 1 1 1 1 1 1 1 1 1 1 1 1 1 1 1 1 1 1 1 1 1 1 0 0 0 0 0 0 0 0 0 0 0 0 0 0 0 0 0 0 0 0 0 0 0 0 0 0 0 0 0 0 0 0 0 0 0 0 0 0 0 0 0 0 0 0 0 0 0 0 0 0 0 0 0 0 0 "/>
</feComponentTransfer>
<feComposite operator="in" in2="effect1_innerShadow_684_801" in="coloredNoise1" result="noise1Clipped" />
<feFlood flood-color="rgba(255, 255, 255, 0.25)" result="color1Flood" />
<feComposite operator="in" in2="noise1Clipped" in="color1Flood" result="color1" />
<feMerge result="effect2_noise_684_801">
<feMergeNode in="effect1_innerShadow_684_801" />
<feMergeNode in="color1" />
</feMerge>
</filter>
<filter id="filter3_in_684_801" x="47.252" y="0" width="83.6572" height="48.2078" filterUnits="userSpaceOnUse" color-interpolation-filters="sRGB">
<feFlood flood-opacity="0" result="BackgroundImageFix"/>
<feBlend mode="normal" in="SourceGraphic" in2="BackgroundImageFix" result="shape"/>
<feColorMatrix in="SourceAlpha" type="matrix" values="0 0 0 0 0 0 0 0 0 0 0 0 0 0 0 0 0 0 127 0" result="hardAlpha"/>
<feOffset dx="0.0692706" dy="0.207812"/>
<feGaussianBlur stdDeviation="0.5888"/>
<feComposite in2="hardAlpha" operator="arithmetic" k2="-1" k3="1"/>
<feColorMatrix type="matrix" values="0 0 0 0 0 0 0 0 0 0 0 0 0 0 0 0 0 0 0.25 0"/>
<feBlend mode="normal" in2="shape" result="effect1_innerShadow_684_801"/>
<feTurbulence type="fractalNoise" baseFrequency="28.872276306152344 28.872276306152344" stitchTiles="stitch" numOctaves="3" result="noise" seed="5780" />
<feColorMatrix in="noise" type="luminanceToAlpha" result="alphaNoise" />
<feComponentTransfer in="alphaNoise" result="coloredNoise1">
<feFuncA type="discrete" tableValues="0 0 0 0 0 1 1 1 1 1 1 1 1 1 1 1 1 1 1 1 1 1 1 1 1 1 1 1 1 1 1 1 1 1 1 1 1 1 1 1 1 1 1 1 1 0 0 0 0 0 0 0 0 0 0 0 0 0 0 0 0 0 0 0 0 0 0 0 0 0 0 0 0 0 0 0 0 0 0 0 0 0 0 0 0 0 0 0 0 0 0 0 0 0 0 0 0 0 0 0 "/>
</feComponentTransfer>
<feComposite operator="in" in2="effect1_innerShadow_684_801" in="coloredNoise1" result="noise1Clipped" />
<feFlood flood-color="rgba(255, 255, 255, 0.25)" result="color1Flood" />
<feComposite operator="in" in2="noise1Clipped" in="color1Flood" result="color1" />
<feMerge result="effect2_noise_684_801">
<feMergeNode in="effect1_innerShadow_684_801" />
<feMergeNode in="color1" />
</feMerge>
</filter>
<radialGradient id="paint0_radial_684_801" cx="0" cy="0" r="1" gradientTransform="matrix(60.7197 6.80156 -3.6133 28.8176 -1.35258e-06 28.3398)" gradientUnits="userSpaceOnUse">
<stop offset="0.022629" stop-color="white"/>
<stop offset="1" stop-color="white"/>
</radialGradient>
<radialGradient id="paint1_radial_684_801" cx="0" cy="0" r="1" gradientTransform="matrix(3.93919 0.535364 -0.234412 2.26829 27.4355 3.43222)" gradientUnits="userSpaceOnUse">
<stop offset="0.022629" stop-color="#AA10EC"/>
<stop offset="1" stop-color="#641188"/>
</radialGradient>
<radialGradient id="paint2_radial_684_801" cx="0" cy="0" r="1" gradientTransform="matrix(117.448 7.29114 -6.98904 30.8919 47.252 30.3797)" gradientUnits="userSpaceOnUse">
<stop offset="0.022629" stop-color="white"/>
<stop offset="1" stop-color="white"/>
</radialGradient>
</defs>
</svg>
