<svg width="234" height="86" viewBox="0 0 234 86" fill="none" xmlns="http://www.w3.org/2000/svg">
<g filter="url(#filter0_in_1_532)">
<path d="M51.4287 0.00830078C54.4746 0.00830078 56.9442 2.47705 56.9443 5.52295C56.9441 8.56881 54.4746 11.0386 51.4287 11.0386C49.6833 11.0385 48.1278 10.2269 47.1172 8.96143H15.3545C9.88093 8.96144 5.44336 13.399 5.44336 18.8726V71.3647C5.44373 72.4762 6.34551 73.3774 7.45703 73.3774C8.56842 73.3773 9.46936 72.4761 9.46973 71.3647V62.7905C9.46974 59.8357 9.75489 56.8477 10.9131 54.1294C14.0026 46.8787 19.3569 42.8738 27.6484 39.9761C31.6923 38.5629 37.3664 38.4265 41.3428 38.5522C44.4541 38.6506 47.6244 38.4259 50.4678 37.1587C54.1905 35.4995 57.1467 33.4274 59.4414 30.2017C61.1865 27.7484 61.6718 24.6703 61.6719 21.6597V11.1421C61.6719 9.41477 61.9562 7.6638 62.9697 6.26514C64.1866 4.58627 66.2879 2.58662 69.3955 2.58643C73.6435 2.58642 75.7295 5.2081 76.6514 6.96826C77.1715 7.96148 77.2861 9.09514 77.2861 10.2163V66.439C77.2858 73.9648 71.1851 80.0659 63.6592 80.0659H24.4141C22.9962 80.0659 21.8469 78.9164 21.8467 77.4985C21.8467 76.0805 22.996 74.9312 24.4141 74.9312H31.3564C30.6431 74.477 29.9389 73.5923 29.7129 72.8218C29.4834 72.0398 29.4761 72.0339 28.5186 71.9282C27.9886 71.8697 27.2979 71.6879 26.9844 71.5249C25.9368 70.9801 25.8562 70.7093 25.8574 67.731C25.858 66.2472 25.939 64.7421 26.0371 64.3872C26.2499 63.6182 26.8442 63.2731 28.5127 62.9507C29.7158 62.7182 29.7722 62.6802 32.6377 60.144C35.0553 58.0042 35.9149 57.7535 41.2588 57.6323C47.9517 57.4806 48.2968 57.5975 53.1113 61.6606C54.2778 62.645 55.2916 63.3589 55.6133 63.4214C57.9454 63.8734 61.3224 64.684 62.1377 64.9868C63.32 65.4263 64.3047 66.3883 64.6064 67.3999C64.7257 67.7995 64.8232 68.8585 64.8232 69.7534C64.8232 71.8926 64.7706 71.9448 62.6045 71.9448H60.9473L60.7227 72.7075C60.4395 73.67 59.8286 74.4842 59.0615 74.9312H61.8525C67.3259 74.931 71.7625 70.4933 71.7627 65.02V11.9546C71.7627 10.8881 70.8985 10.023 69.832 10.0229C68.7655 10.0229 67.9014 10.8881 67.9014 11.9546V19.3345C67.9013 23.3266 67.5372 27.4031 65.6748 30.9341C62.587 36.7882 57.7398 40.6276 51.3828 43.1079C47.955 44.4453 44.1868 44.3621 40.5186 44.0747C37.3192 43.824 33.3624 43.8133 30.4414 44.7954C24.1822 46.9 19.9136 49.8908 17.1211 55.2017C16.0655 57.2094 15.7402 59.4997 15.7402 61.7681V70.645C15.7402 72.4482 15.4218 74.266 14.3926 75.7466C12.9763 77.7836 10.4456 80.3529 6.81152 80.0659C0.15619 79.5401 0.00127337 73.4331 0 73.3774V16.2144C0 8.68831 6.10096 2.58663 13.627 2.58643H46.7617C47.7383 1.03776 49.4626 0.00834786 51.4287 0.00830078ZM37.0439 72.5503C36.8921 73.362 36.0674 74.4692 35.2871 74.9312H55.0967L55.0498 74.9028C54.2398 74.415 53.5761 73.4907 53.3945 72.5981L53.2793 72.0347L37.1582 71.9409L37.0439 72.5503ZM41.9512 59.5728C39.2737 59.5832 37.7791 59.665 37.0459 59.8433C36.4659 59.9842 35.7317 60.2614 35.4141 60.4585C34.6084 60.9587 32.2556 63.4815 32.3896 63.7017C32.5186 63.9114 52.2809 63.9111 52.3105 63.7017C52.3105 63.5275 49.5513 61.1785 48.6465 60.5825C47.3539 59.7312 46.1916 59.5564 41.9512 59.5728Z" fill="url(#paint0_radial_1_532)"/>
</g>
<path fill-rule="evenodd" clip-rule="evenodd" d="M54.078 7.64571C54.078 8.09166 52.9556 8.45315 51.571 8.45315C50.1864 8.45315 49.064 8.09166 49.064 7.64571C49.064 7.2954 49.7567 6.99724 50.725 6.88545C50.841 7.04478 50.9543 7.19539 51.0598 7.33328C50.6913 7.38676 50.4388 7.4962 50.4388 7.62255C50.4388 7.80155 50.9457 7.94667 51.571 7.94667C52.1963 7.94667 52.7032 7.80155 52.7032 7.62255C52.7032 7.49632 52.4511 7.38695 52.0832 7.33342C52.1893 7.19532 52.303 7.04481 52.4194 6.88573C53.3864 6.99772 54.078 7.29568 54.078 7.64571ZM51.571 2.1499C50.4758 2.1499 49.5879 3.0566 49.5879 4.17508C49.5879 5.10454 50.9099 6.82111 51.5225 7.60205C51.5347 7.61759 51.5515 7.62581 51.571 7.62581C51.5905 7.62585 51.6073 7.61762 51.6195 7.60211C52.2067 6.85481 53.5541 5.13007 53.5541 4.17508C53.5541 3.0566 52.6662 2.1499 51.571 2.1499ZM51.571 3.11145C52.1449 3.11145 52.6101 3.58656 52.6101 4.17261C52.6101 4.75867 52.1449 5.23377 51.571 5.23377C50.9971 5.23377 50.5319 4.75867 50.5319 4.17261C50.5319 3.58656 50.9971 3.11145 51.571 3.11145Z" fill="white"/>
<path d="M26.5761 77.3604H62.85C69.2814 77.3604 74.4952 72.1467 74.4952 65.7153V11.0635C74.4952 9.69804 73.8275 8.4189 72.7073 7.63817C71.0163 6.45955 68.7181 6.69141 67.2966 8.18404L66.8363 8.66731C65.9593 9.58824 65.47 10.8113 65.47 12.083V21.056C65.47 23.4069 64.8619 25.7178 63.7046 27.7641L61.4367 31.7744C60.2322 33.9044 58.4764 35.6707 56.3537 36.888L52.0252 39.37C50.2664 40.3785 48.3048 40.9819 46.2832 41.1362L33.4927 42.1122C32.1834 42.2121 30.8954 42.5007 29.6687 42.9691L23.7435 45.2314C21.1125 46.236 18.8574 48.031 17.2882 50.3696L14.5618 54.4331C13.0551 56.6786 12.2506 59.3216 12.2506 62.0258V68.4639C12.2506 70.5929 11.7517 72.6923 10.7941 74.5937L10.4271 75.3224C9.11674 77.9241 5.41759 77.9666 4.04774 75.3958L3.68019 74.7061C2.62915 72.7336 2.07941 70.5328 2.07941 68.2978V17.3584C2.07941 10.8585 7.34859 5.58936 13.8485 5.58936H44.4115" stroke="white" stroke-width="0.24777" stroke-dasharray="1.11 1.11"/>
<g filter="url(#filter1_in_1_532)">
<path fill-rule="evenodd" clip-rule="evenodd" d="M92.9822 0.434168C90.6907 1.12983 89.2839 1.94259 87.8266 3.41281C84.0345 7.23867 83.4136 13.3859 86.3721 17.814C87.9269 20.1411 89.9338 21.6487 92.6964 22.5652C93.9619 22.985 94.5359 23.0647 96.282 23.0622C97.582 23.0605 98.7791 22.9464 99.4774 22.758C101.03 22.3391 103.046 21.2372 104.21 20.1732C105.335 19.1433 106.393 17.7063 106.099 17.6079C105.989 17.5712 104.984 17.0319 103.866 16.4096C102.748 15.7872 101.756 15.278 101.661 15.278C101.566 15.278 101.362 15.5232 101.207 15.8231C100.868 16.4798 100.005 17.2311 98.9497 17.7877C98.3223 18.119 97.8432 18.1994 96.4709 18.2043C94.9842 18.2098 94.6345 18.1439 93.6947 17.6819C92.2943 16.9935 90.8485 15.4192 90.403 14.0979C90.181 13.4391 90.0693 12.5457 90.0729 11.4567C90.0776 9.99446 90.1455 9.67453 90.6818 8.58402C91.0562 7.82252 91.6383 7.03889 92.2153 6.51955C95.0426 3.97491 99.7974 4.52829 101.579 7.60949C101.755 7.91485 101.89 7.86358 103.056 7.04778C103.762 6.55398 104.76 5.91943 105.275 5.63772L106.211 5.1252L105.544 4.25095C104.769 3.23441 103.066 1.79844 101.974 1.24108C100.258 0.364548 99.1671 0.106109 96.8489 0.0266484C94.8231 -0.0427854 94.4104 0.000727442 92.9822 0.434168ZM136.235 6.19981C135.081 6.39449 134.304 6.81716 133.2 7.85109L132.285 8.70813V7.64166V6.57517H129.828H127.371V14.6159V22.6566H129.922H132.473V17.8618C132.473 13.2094 132.487 13.0425 132.913 12.2334C133.516 11.0893 134.362 10.5482 135.55 10.5482C136.41 10.5482 136.564 10.6199 137.318 11.3746L138.143 12.2012L138.187 16.5301C138.211 18.9111 138.229 21.2637 138.226 21.7579L138.222 22.6566H140.709H143.197L143.328 21.6735C143.399 21.1328 143.4 19.1109 143.329 17.1802C143.177 13.0535 143.304 12.3374 144.376 11.2645C145.019 10.6205 145.19 10.5482 146.068 10.5482C147.361 10.5482 148.035 10.927 148.518 11.9271C148.878 12.6715 148.916 13.0785 148.916 16.2552C148.916 18.1837 148.971 20.4129 149.038 21.209L149.16 22.6566H151.589H154.018V17.0175C154.018 11.728 153.993 11.3029 153.607 10.1592C153.051 8.50872 151.522 6.93577 150.047 6.49741C148.754 6.11297 147.094 6.11373 145.959 6.49949C144.945 6.8442 143.172 8.08796 142.858 8.67426C142.657 9.05114 142.621 9.03563 141.986 8.29267C140.605 6.67772 138.324 5.84735 136.235 6.19981ZM165.736 6.26981C164.374 6.66996 163.992 6.86426 162.945 7.6933L161.956 8.476V7.52549V6.57517H159.509H157.062L157.099 17.5957L157.137 28.6161L157.609 28.586C157.869 28.5694 158.996 28.4934 160.113 28.4171L162.145 28.2784V24.7076V21.1368L163.093 21.7897C165.436 23.4027 167.741 23.6364 170.155 22.5052C173.531 20.9241 175.425 17.0983 174.827 13.0711C174.603 11.5642 173.827 9.72901 173.027 8.81465C171.234 6.76569 167.95 5.61937 165.736 6.26981ZM182.78 6.21968C180.372 6.61944 178.229 8.22948 177.181 10.426C175.339 14.2889 176.001 18.4281 178.896 21.1385C180.492 22.6337 181.715 23.1108 183.973 23.1205C185.928 23.1288 186.911 22.7818 188.177 21.6374C188.593 21.2615 188.986 20.9538 189.052 20.9538C189.117 20.9538 189.17 21.3854 189.17 21.9127V22.8715L191.486 22.7697L193.801 22.6679L193.85 14.6216L193.899 6.57517H191.535H189.17V7.42616V8.27715L188.044 7.44679C186.551 6.34682 184.664 5.90675 182.78 6.21968ZM205.958 6.46109C204.494 6.97834 203.774 7.45209 202.974 8.42303L202.4 9.12095V7.84807V6.57517H199.848H197.297V14.5843C197.297 18.9894 197.332 22.6289 197.375 22.6723C197.418 22.7156 198.559 22.7253 199.911 22.6937L202.368 22.6359L202.432 18.5314C202.503 14.0252 202.558 13.7776 203.781 12.4871C204.461 11.77 206.06 11.1158 207.132 11.1158H207.88V8.5617C207.88 5.6137 207.997 5.74083 205.958 6.46109ZM216.007 6.13832C213.16 6.61547 210.557 8.66216 209.447 11.2965C208.975 12.4152 208.925 12.7544 208.923 14.809C208.92 17.018 208.938 17.121 209.566 18.3975C210.409 20.1121 211.623 21.3076 213.377 22.151C215.195 23.0253 216.789 23.2815 218.822 23.0262C220.573 22.8064 221.917 22.3344 223.068 21.5346C223.894 20.9614 225.012 19.8645 224.876 19.7623C224.831 19.729 224.047 19.1243 223.132 18.4185L221.469 17.1348L221.007 17.6342C219.628 19.123 216.609 19.2958 215.042 17.9756C214.546 17.5576 213.928 16.5371 213.928 16.1355C213.928 16.08 216.563 16.0348 219.783 16.0348H225.638L225.757 15.5599C225.991 14.6289 225.506 11.7466 224.903 10.4824C223.465 7.46457 219.537 5.54672 216.007 6.13832ZM113.575 6.5536C111.05 7.37073 109.068 9.00025 108.039 11.1045C107.457 12.2939 107.433 12.44 107.437 14.6159C107.442 17.5856 107.825 18.6366 109.523 20.3371C114.059 24.8822 121.5 23.8237 124.256 18.2406C125.694 15.3276 125.285 11.7744 123.221 9.2689C122.388 8.25691 120.45 6.99083 119.089 6.57026C117.534 6.08914 115.032 6.08176 113.575 6.5536ZM215.683 10.4998C214.93 10.9153 214.117 11.9901 214.117 12.5714V13.0077H217.424C219.572 13.0077 220.732 12.9392 220.732 12.8125C220.732 12.2735 220.128 11.2959 219.497 10.8144C218.911 10.3668 218.574 10.2644 217.54 10.2194C216.62 10.1793 216.13 10.2531 215.683 10.4998ZM114.614 10.835C113.715 11.3199 113.258 11.8383 112.811 12.8774C112.474 13.6631 112.413 14.0861 112.487 15.1288C112.659 17.5262 114.099 18.8142 116.421 18.6461C118.609 18.4875 119.93 16.8313 119.778 14.4361C119.634 12.174 118.311 10.7278 116.269 10.598C115.516 10.5503 115.006 10.6233 114.614 10.835ZM164.413 10.671C163.904 10.8734 162.876 11.9513 162.506 12.6691C162.247 13.1729 162.145 13.7632 162.145 14.7604C162.145 15.9648 162.217 16.2639 162.686 17.0046C163.316 17.9988 164.191 18.4822 165.607 18.6188C166.425 18.6977 166.757 18.6252 167.622 18.1782C169.032 17.4494 169.61 16.351 169.61 14.4008C169.61 13.1939 169.546 12.9497 169.043 12.2368C168.304 11.1896 167.278 10.6684 165.834 10.6067C165.208 10.58 164.569 10.609 164.413 10.671ZM183.528 10.9567C182.037 11.6951 181.076 13.5602 181.309 15.2608C181.452 16.3097 182.184 17.5816 182.964 18.1379C183.615 18.6012 185.107 18.8144 186.227 18.604C188.424 18.1916 189.647 14.8463 188.411 12.6293C187.378 10.7737 185.319 10.0688 183.528 10.9567ZM159 29.6094C159.064 29.9997 159.118 34.8951 159.119 40.488L159.121 50.6571H161.564H164.006L164.068 45.8656L164.129 41.0743L164.657 40.277C165.432 39.1042 166.177 38.7005 167.397 38.7909C168.46 38.8696 169.12 39.241 169.787 40.1348C170.154 40.6259 170.18 40.9515 170.236 45.6569L170.294 50.6571H172.847H175.399L175.33 44.8394C175.249 37.998 175.205 37.7842 173.496 36.0722C172.25 34.8228 171.011 34.322 169.138 34.3105C167.504 34.3004 166.147 34.7904 165.033 35.7941L164.129 36.6073L164.193 32.7536L164.257 28.8999H161.57H158.883L159 29.6094ZM85.5598 39.8731L85.5095 50.6571H88.2026H90.8957V46.4003V42.1434H95.2962H99.6964L99.6203 46.4003L99.5441 50.6571H102.213H104.881V39.8731V29.0891H102.22H99.56L99.6082 33.2987L99.6564 37.5082L95.2762 37.5589L90.8957 37.6098V33.3494V29.0891H88.2529H85.6101L85.5598 39.8731ZM149.158 30.5535L147.983 30.6204L147.93 32.6454L147.876 34.6703L146.695 34.7267L145.514 34.7829V36.7514V38.72L146.695 38.7762L147.876 38.8326L147.879 42.8056C147.881 45.3983 147.963 47.0479 148.115 47.5536C148.469 48.7334 149.308 49.746 150.442 50.3642C151.302 50.8325 151.726 50.9331 153.073 50.9882C154.014 51.0268 155.071 50.9511 155.625 50.8054L156.57 50.557L156.532 49.1409C156.511 48.3618 156.444 47.4512 156.383 47.1171C156.281 46.5575 156.234 46.524 155.794 46.6914C154.934 47.0189 153.735 46.9133 153.339 46.4754C153.016 46.1185 152.972 45.7001 152.917 42.4147L152.856 38.7519L154.713 38.6977L156.57 38.6434L156.623 36.6095L156.677 34.5757H154.781H152.884V32.4946V30.4135L151.609 30.45C150.907 30.47 149.804 30.5166 149.158 30.5535ZM113.461 34.5428C110.976 35.2807 108.905 37.0848 108.114 39.2005C106.778 42.7755 107.48 46.5278 109.899 48.7409C112.358 50.9908 115.524 51.7262 118.961 50.8461C120.634 50.4178 121.583 49.9147 122.888 48.7631C123.964 47.8137 123.987 47.8612 121.754 46.3893L120.145 45.3283L119.553 45.9019C118.7 46.7277 117.751 47.063 116.274 47.0594C115.297 47.057 114.813 46.955 114.242 46.6307C113.436 46.174 112.63 45.1455 112.63 44.5749C112.63 44.249 112.856 44.2219 115.89 44.1865C117.683 44.1657 120.213 44.1703 121.512 44.1966C122.885 44.2244 123.993 44.1638 124.158 44.0522C124.377 43.9039 124.437 43.4793 124.422 42.1975C124.383 38.7677 122.565 36.1004 119.386 34.8086C117.799 34.1635 115.14 34.0443 113.461 34.5428ZM131.533 34.4885C129.384 35.092 127.747 36.4016 126.753 38.3138C126.013 39.7354 125.67 41.0949 125.67 42.5999C125.67 46.8329 128.098 50.0714 132.012 51.058C133.858 51.5234 136.15 50.866 137.761 49.4084L138.499 48.7408L138.558 49.6517L138.616 50.5625L141.025 50.6155L143.435 50.6685V42.6221V34.5757H140.959H138.483L138.551 35.4271C138.588 35.8953 138.587 36.2784 138.547 36.2784C138.509 36.2784 138.176 36.0147 137.81 35.6921C136.329 34.3911 133.685 33.884 131.533 34.4885ZM187.422 34.4028C185.848 34.7738 184.493 35.7166 183.781 36.9344C183.637 37.1815 183.607 37.046 183.659 36.3878C183.697 35.9065 183.674 35.2969 183.608 35.033L183.488 34.5534L181.085 34.6119L178.682 34.6703L178.632 42.6637L178.583 50.6571H181.124H183.664L183.724 46.3374L183.784 42.0178L184.351 41.1008C185.077 39.9274 186.178 39.3447 187.78 39.2868L188.928 39.2454L189.048 37.4308C189.258 34.2599 189.25 34.1945 188.651 34.2162C188.365 34.2268 187.812 34.3107 187.422 34.4028ZM196.661 34.4974C194.064 35.1267 191.861 36.9049 190.705 39.3055C190.046 40.6723 190.021 40.8013 190.021 42.8096C190.021 44.8016 190.05 44.9537 190.669 46.215C193.9 52.7974 203.662 52.8762 206.887 46.3456C207.589 44.9227 207.597 44.882 207.597 42.6232C207.597 40.4066 207.578 40.3005 206.95 39.0183C206.054 37.1887 204.586 35.7756 202.868 35.0896C200.636 34.1985 198.669 34.0108 196.661 34.4974ZM208.07 34.7698C208.069 34.9265 213.127 50.4864 213.201 50.5538C213.237 50.5869 214.339 50.6486 215.651 50.6906L218.034 50.7672L219.374 46.6918C220.111 44.4503 220.77 42.3824 220.838 42.0961C220.906 41.8099 221.018 41.5758 221.086 41.5758C221.219 41.5758 223.217 48.0211 223.594 49.6691L223.823 50.6677L226.272 50.6151L228.722 50.5625L230.218 46.2111C233.297 37.2592 233.932 35.383 233.993 35.0619C234.049 34.7653 233.805 34.7242 231.547 34.651C229.629 34.5889 229.022 34.6262 228.969 34.8092C228.931 34.9409 228.328 37.092 227.629 39.5893C226.93 42.0867 226.313 44.2051 226.259 44.2966C226.204 44.3884 225.842 43.4093 225.454 42.1209C225.065 40.8327 224.391 38.6504 223.955 37.2717L223.163 34.7649H221.024C218.961 34.7649 218.883 34.7799 218.792 35.1906C218.512 36.4559 216.159 44.3377 216.019 44.4779C215.924 44.5725 215.759 44.168 215.634 43.5353C215.514 42.9259 215.279 42.0015 215.112 41.4813C214.945 40.961 214.452 39.2157 214.018 37.6028L213.228 34.6703H210.649C209.231 34.6703 208.07 34.7151 208.07 34.7698ZM114.39 38.538C113.608 38.8935 112.809 39.8631 112.535 40.7897L112.404 41.2334L115.777 41.0976C117.632 41.0227 119.181 40.9333 119.22 40.8991C119.389 40.7476 119.012 39.8506 118.544 39.2944C117.588 38.156 115.905 37.8497 114.39 38.538ZM133.384 38.8477C130.69 39.6775 129.903 43.5531 132.001 45.6537C133.797 47.4516 136.576 47.0969 137.858 44.9064C139.255 42.5201 138.126 39.3963 135.639 38.7697C134.577 38.5018 134.498 38.5045 133.384 38.8477ZM197.392 38.9926C195.942 39.6584 195.154 41.0384 195.159 42.9008C195.164 44.4605 195.679 45.5375 196.767 46.2576C197.425 46.6937 197.754 46.7777 198.807 46.7781C199.854 46.7786 200.191 46.6941 200.831 46.2709C202.995 44.8383 203.068 40.9801 200.961 39.3714C200.417 38.9555 200.037 38.8358 199.117 38.79C198.415 38.755 197.735 38.8348 197.392 38.9926ZM156.982 55.6612C156.018 56.005 155.604 56.4108 155.239 57.3683C154.485 59.345 156.196 61.3022 158.418 61.0039C159.841 60.8128 160.821 59.6333 160.822 58.1109C160.822 56.2508 158.853 54.9943 156.982 55.6612ZM137.387 67.5899V78.8468H139.939H142.49V75.8197C142.49 74.0748 142.565 72.7927 142.666 72.7927C142.763 72.7927 143.917 74.1548 145.23 75.8197L147.618 78.8468H150.737H153.855L153.477 78.3265C153.269 78.0403 151.743 76.1461 150.087 74.117L147.075 70.4277L147.853 69.5469C150.426 66.6361 151.403 65.5036 152.457 64.2114L153.636 62.7654H150.73C148.232 62.7654 147.77 62.812 147.445 63.0965C147.237 63.2787 146.069 64.577 144.85 65.9817C143.631 67.3865 142.58 68.5572 142.514 68.5833C142.449 68.6092 142.419 65.8637 142.448 62.4818L142.5 56.3329H139.944H137.387V67.5899ZM85.604 67.8937V78.8468H88.2499H90.8957V75.3698V71.8927L93.7778 71.7992C97.0124 71.6942 98.155 71.4029 99.914 70.2352C101.077 69.4633 102.327 67.9516 102.618 66.9661C102.732 66.5809 102.874 65.5732 102.933 64.7272C103.191 61.0729 101.436 58.5635 97.8343 57.4344C96.8072 57.1124 95.9667 57.0584 91.132 57.0034L85.604 56.9406V67.8937ZM90.8957 64.3448V67.4953H93.0395C94.9127 67.4953 95.2869 67.4404 96.006 67.0596C98.1221 65.9393 98.2463 62.9457 96.2258 61.761C95.784 61.502 95.0656 61.3917 93.2689 61.3066L90.8957 61.1944V64.3448ZM108.628 62.8269C106.678 63.6493 105.527 64.7041 104.621 66.4988C103.223 69.271 103.197 72.5128 104.553 75.1576C105.2 76.4197 106.793 77.9788 108.084 78.6143C109.034 79.0816 109.33 79.1306 111.212 79.1306C113.105 79.1306 113.377 79.085 114.256 78.6208C114.787 78.3404 115.488 77.8865 115.814 77.612L116.406 77.1129L116.288 77.9799L116.169 78.8468H118.746H121.323V70.8061V62.7654H118.866H116.409V63.726V64.6863L115.912 64.0951C115.639 63.7697 114.98 63.2785 114.448 63.0032C113.63 62.5804 113.187 62.493 111.59 62.4389C109.935 62.3829 109.567 62.4311 108.628 62.8269ZM133.284 62.6616C132.023 63.0559 130.86 63.8276 130.208 64.7018L129.606 65.5087L129.669 64.1844L129.733 62.86L127.229 62.8072L124.725 62.7545V70.8006V78.8468L127.324 78.8466L129.922 78.8465V74.7317C129.922 70.0957 130.009 69.6523 131.124 68.5621C131.867 67.8352 133.266 67.3129 134.482 67.3083C135.212 67.3055 135.308 66.9479 135.308 64.2553V62.3871L134.694 62.3997C134.356 62.4067 133.722 62.5244 133.284 62.6616ZM171.675 62.7637C171.147 62.9739 170.316 63.5285 169.828 63.9961C169.341 64.4638 168.901 64.8466 168.851 64.8466C168.801 64.8466 168.76 64.3783 168.76 63.806V62.7654H166.297H163.835L163.854 70.8061L163.873 78.8468H166.505H169.138L169.143 74.0697C169.148 69.4867 169.165 69.2585 169.576 68.456C170.148 67.336 170.746 66.9273 171.984 66.8115C173.294 66.6889 174.167 67.1131 174.754 68.1574C175.164 68.8883 175.179 69.0847 175.182 73.8805L175.185 78.8468H177.848H180.51L180.437 73.1237C180.367 67.6553 180.344 67.3505 179.92 66.2752C179.354 64.8371 178.113 63.5012 176.832 62.949C175.407 62.3346 172.972 62.2472 171.675 62.7637ZM187.819 62.6843C187.335 62.8334 186.517 63.2744 186.001 63.6645C184.319 64.9353 183.476 66.2237 182.932 68.3557C182.046 71.82 182.765 74.7374 185.025 76.8531C187.664 79.3245 191.891 79.6034 194.54 77.4807L195.279 76.8885L195.149 78.2842C195.078 79.0519 194.873 79.9311 194.693 80.2382C194.221 81.0483 193.081 81.5697 191.601 81.6537C189.982 81.7457 188.668 81.455 186.939 80.622C186.173 80.2535 185.529 79.9799 185.508 80.0142C185.487 80.0486 184.971 80.752 184.36 81.5774L183.251 83.0785L183.858 83.5861C184.689 84.2803 186.604 85.1916 187.985 85.5499C189.334 85.8998 192.825 85.9482 194.311 85.6379C195.988 85.2877 197.544 84.4358 198.582 83.2985C200.242 81.48 200.208 81.7148 200.278 71.6045L200.338 62.7541L197.92 62.8071L195.502 62.86L195.444 63.7666L195.386 64.6733L194.443 63.8249C193.82 63.2638 193.158 62.8769 192.488 62.6818C191.243 62.3197 188.998 62.3208 187.819 62.6843ZM155.53 70.8006V78.8468H158.084H160.637L160.588 70.8534L160.538 62.86L158.034 62.8072L155.53 62.7545V70.8006ZM110.834 67.1479C110.037 67.5881 109.404 68.3599 109.039 69.3346C107.948 72.2535 109.602 74.8738 112.535 74.8738C114.763 74.8738 116.207 73.2643 116.216 70.7711C116.218 70.1275 116.13 69.3613 116.019 69.0684C115.746 68.3436 114.93 67.5032 114.195 67.1882C113.471 66.8781 111.368 66.8529 110.834 67.1479ZM189.529 67.3535C188.599 67.9703 187.846 69.5561 187.852 70.8873C187.861 73.2391 189.286 74.691 191.574 74.6804C192.854 74.6746 193.952 74.1193 194.589 73.1557C195.309 72.0667 195.448 70.0112 194.878 68.897C194.124 67.4249 193.235 66.9277 191.36 66.9277C190.443 66.9277 190.024 67.0251 189.529 67.3535Z" fill="url(#paint1_radial_1_532)"/>
</g>
<defs>
<filter id="filter0_in_1_532" x="0" y="0.00830078" width="77.41" height="80.4512" filterUnits="userSpaceOnUse" color-interpolation-filters="sRGB">
<feFlood flood-opacity="0" result="BackgroundImageFix"/>
<feBlend mode="normal" in="SourceGraphic" in2="BackgroundImageFix" result="shape"/>
<feColorMatrix in="SourceAlpha" type="matrix" values="0 0 0 0 0 0 0 0 0 0 0 0 0 0 0 0 0 0 127 0" result="hardAlpha"/>
<feOffset dx="0.123885" dy="0.371655"/>
<feGaussianBlur stdDeviation="1.05302"/>
<feComposite in2="hardAlpha" operator="arithmetic" k2="-1" k3="1"/>
<feColorMatrix type="matrix" values="0 0 0 0 0 0 0 0 0 0 0 0 0 0 0 0 0 0 0.25 0"/>
<feBlend mode="normal" in2="shape" result="effect1_innerShadow_1_532"/>
<feTurbulence type="fractalNoise" baseFrequency="16.144023895263672 16.144023895263672" stitchTiles="stitch" numOctaves="3" result="noise" seed="5780" />
<feColorMatrix in="noise" type="luminanceToAlpha" result="alphaNoise" />
<feComponentTransfer in="alphaNoise" result="coloredNoise1">
<feFuncA type="discrete" tableValues="0 0 0 0 0 1 1 1 1 1 1 1 1 1 1 1 1 1 1 1 1 1 1 1 1 1 1 1 1 1 1 1 1 1 1 1 1 1 1 1 1 1 1 1 1 0 0 0 0 0 0 0 0 0 0 0 0 0 0 0 0 0 0 0 0 0 0 0 0 0 0 0 0 0 0 0 0 0 0 0 0 0 0 0 0 0 0 0 0 0 0 0 0 0 0 0 0 0 0 0 "/>
</feComponentTransfer>
<feComposite operator="in" in2="effect1_innerShadow_1_532" in="coloredNoise1" result="noise1Clipped" />
<feFlood flood-color="rgba(255, 255, 255, 0.25)" result="color1Flood" />
<feComposite operator="in" in2="noise1Clipped" in="color1Flood" result="color1" />
<feMerge result="effect2_noise_1_532">
<feMergeNode in="effect1_innerShadow_1_532" />
<feMergeNode in="color1" />
</feMerge>
</filter>
<filter id="filter1_in_1_532" x="84.5082" y="0" width="149.616" height="86.2159" filterUnits="userSpaceOnUse" color-interpolation-filters="sRGB">
<feFlood flood-opacity="0" result="BackgroundImageFix"/>
<feBlend mode="normal" in="SourceGraphic" in2="BackgroundImageFix" result="shape"/>
<feColorMatrix in="SourceAlpha" type="matrix" values="0 0 0 0 0 0 0 0 0 0 0 0 0 0 0 0 0 0 127 0" result="hardAlpha"/>
<feOffset dx="0.123885" dy="0.371655"/>
<feGaussianBlur stdDeviation="1.05302"/>
<feComposite in2="hardAlpha" operator="arithmetic" k2="-1" k3="1"/>
<feColorMatrix type="matrix" values="0 0 0 0 0 0 0 0 0 0 0 0 0 0 0 0 0 0 0.25 0"/>
<feBlend mode="normal" in2="shape" result="effect1_innerShadow_1_532"/>
<feTurbulence type="fractalNoise" baseFrequency="16.144023895263672 16.144023895263672" stitchTiles="stitch" numOctaves="3" result="noise" seed="5780" />
<feColorMatrix in="noise" type="luminanceToAlpha" result="alphaNoise" />
<feComponentTransfer in="alphaNoise" result="coloredNoise1">
<feFuncA type="discrete" tableValues="0 0 0 0 0 1 1 1 1 1 1 1 1 1 1 1 1 1 1 1 1 1 1 1 1 1 1 1 1 1 1 1 1 1 1 1 1 1 1 1 1 1 1 1 1 0 0 0 0 0 0 0 0 0 0 0 0 0 0 0 0 0 0 0 0 0 0 0 0 0 0 0 0 0 0 0 0 0 0 0 0 0 0 0 0 0 0 0 0 0 0 0 0 0 0 0 0 0 0 0 "/>
</feComponentTransfer>
<feComposite operator="in" in2="effect1_innerShadow_1_532" in="coloredNoise1" result="noise1Clipped" />
<feFlood flood-color="rgba(255, 255, 255, 0.25)" result="color1Flood" />
<feComposite operator="in" in2="noise1Clipped" in="color1Flood" result="color1" />
<feMerge result="effect2_noise_1_532">
<feMergeNode in="effect1_innerShadow_1_532" />
<feMergeNode in="color1" />
</feMerge>
</filter>
<radialGradient id="paint0_radial_1_532" cx="0" cy="0" r="1" gradientTransform="matrix(108.592 12.164 -6.46206 51.5378 -2.41897e-06 50.6916)" gradientUnits="userSpaceOnUse">
<stop offset="0.022629" stop-color="#AA10EC"/>
<stop offset="1" stop-color="#641188"/>
</radialGradient>
<radialGradient id="paint1_radial_1_532" cx="0" cy="0" r="1" gradientTransform="matrix(210.045 13.0396 -12.4993 55.2477 84.5082 54.3317)" gradientUnits="userSpaceOnUse">
<stop offset="0.022629" stop-color="#AA10EC"/>
<stop offset="1" stop-color="#641188"/>
</radialGradient>
</defs>
</svg>
