<svg width="3082" height="2398" viewBox="0 0 3082 2398" fill="none" xmlns="http://www.w3.org/2000/svg">
<path opacity="0.04" d="M2421 0C2786.06 0 3082 295.94 3082 661C3082 1026.06 2786.06 1322 2421 1322C2055.94 1322 1760 1026.06 1760 661C1760 295.94 2055.94 0 2421 0ZM2420.5 138C2131.93 138 1898 371.931 1898 660.5C1898 949.069 2131.93 1183 2420.5 1183C2709.07 1183 2943 949.069 2943 660.5C2943 371.931 2709.07 138 2420.5 138Z" fill="url(#paint0_radial_697_236)"/>
<path opacity="0.04" d="M661 1076C1026.06 1076 1322 1371.94 1322 1737C1322 2102.06 1026.06 2398 661 2398C295.94 2398 0 2102.06 0 1737C0 1371.94 295.94 1076 661 1076ZM660.5 1214C371.931 1214 138 1447.93 138 1736.5C138 2025.07 371.931 2259 660.5 2259C949.069 2259 1183 2025.07 1183 1736.5C1183 1447.93 949.069 1214 660.5 1214Z" fill="url(#paint1_radial_697_236)"/>
<defs>
<radialGradient id="paint0_radial_697_236" cx="0" cy="0" r="1" gradientTransform="matrix(1857.49 200.81 -110.535 850.815 1760 836.709)" gradientUnits="userSpaceOnUse">
<stop offset="0.022629" stop-color="#AA10EC"/>
<stop offset="1" stop-color="#641188"/>
</radialGradient>
<radialGradient id="paint1_radial_697_236" cx="0" cy="0" r="1" gradientTransform="matrix(1857.49 200.81 -110.535 850.815 -4.13772e-05 1912.71)" gradientUnits="userSpaceOnUse">
<stop offset="0.022629" stop-color="#AA10EC"/>
<stop offset="1" stop-color="#641188"/>
</radialGradient>
</defs>
</svg>
